<?xml version="1.0" standalone="no"?>
<!DOCTYPE svg PUBLIC "-//W3C//DTD SVG 20010904//EN"
 "http://www.w3.org/TR/2001/REC-SVG-20010904/DTD/svg10.dtd">
<svg version="1.0" xmlns="http://www.w3.org/2000/svg"
 width="250.000000pt" height="250.000000pt" viewBox="0 0 250.000000 250.000000"
 preserveAspectRatio="xMidYMid meet">

<g transform="translate(0.000000,250.000000) scale(0.100000,-0.100000)"
fill="#000000" stroke="none">
<path d="M1344 2046 c-3 -9 -3 -27 0 -41 10 -37 -25 -33 -47 7 -14 24 -21 28
-30 19 -9 -9 -8 -18 4 -39 11 -20 13 -32 6 -43 -9 -14 -12 -14 -29 3 -10 10
-25 18 -33 18 -24 0 -17 -29 10 -42 40 -18 32 -43 -12 -43 -27 0 -38 -4 -38
-15 0 -11 10 -15 37 -14 47 1 57 -25 16 -43 -30 -13 -39 -43 -13 -43 8 0 24 9
34 19 19 19 20 19 40 -3 12 -13 21 -36 21 -54 0 -35 26 -72 50 -72 24 0 50 37
50 72 0 18 9 41 21 54 20 22 21 22 40 3 10 -10 26 -19 34 -19 26 0 17 30 -13
43 -41 18 -31 44 16 43 27 -1 37 3 37 14 0 10 -11 15 -35 15 -46 0 -58 26 -19
42 30 13 40 43 14 43 -8 0 -23 -8 -32 -17 -17 -17 -19 -17 -35 0 -10 9 -13 17
-8 17 18 0 35 49 22 62 -8 8 -16 3 -29 -20 -25 -45 -51 -42 -49 4 1 38 -19 58
-30 30z m71 -121 c14 -13 25 -33 25 -44 0 -31 -21 -70 -42 -76 -10 -4 -18 -13
-18 -21 0 -8 -9 -14 -20 -14 -11 0 -20 6 -20 14 0 8 -8 17 -18 21 -21 6 -42
45 -42 76 0 31 44 69 80 69 19 0 40 -9 55 -25z m-42 -202 c-7 -2 -19 -2 -25 0
-7 3 -2 5 12 5 14 0 19 -2 13 -5z"/>
<path d="M1352 1928 c-17 -22 -22 -52 -14 -83 l8 -30 19 28 c22 35 30 97 11
97 -8 0 -18 -6 -24 -12z"/>
<path d="M1601 1225 c-11 -14 -23 -39 -26 -55 -4 -20 -13 -30 -24 -30 -23 0
-60 -34 -90 -83 l-23 -37 58 -71 c49 -60 58 -77 62 -120 5 -57 -10 -82 -66
-106 -48 -20 -91 -3 -147 59 -44 49 -47 50 -63 34 -16 -17 -14 -20 43 -71 165
-147 292 -179 437 -107 183 90 310 369 188 415 -29 11 -29 12 -23 72 5 55 3
64 -17 82 -28 27 -78 36 -117 22 -25 -8 -38 -7 -62 5 -48 25 -106 21 -130 -9z"/>
<path d="M940 180 c0 -27 4 -50 9 -50 5 0 7 9 4 21 -4 12 0 25 8 30 10 6 10 9
2 9 -20 0 -15 28 5 33 13 4 11 5 -5 6 -21 1 -23 -3 -23 -49z"/>
<path d="M991 185 l1 -50 9 39 c6 26 6 43 -1 50 -7 7 -10 -6 -9 -39z"/>
<path d="M1016 199 c-3 -17 -2 -38 4 -47 7 -13 9 -5 10 31 0 54 -5 60 -14 16z"/>
<path d="M1051 183 c1 -27 4 -39 6 -28 3 11 10 23 17 27 8 6 7 8 -1 8 -7 0
-13 6 -13 14 0 8 6 17 13 19 7 3 5 6 -5 6 -15 1 -18 -7 -17 -46z"/>
<path d="M1101 183 c1 -38 3 -43 9 -23 7 25 10 23 23 -20 3 -8 5 9 5 38 0 44
-3 52 -19 52 -16 0 -19 -7 -18 -47z m29 22 c0 -8 -4 -15 -10 -15 -5 0 -10 7
-10 15 0 8 5 15 10 15 6 0 10 -7 10 -15z"/>
<path d="M1150 186 c0 -30 5 -46 15 -50 18 -7 29 14 22 41 -3 12 -5 8 -6 -10
-1 -40 -21 -23 -21 19 0 33 13 46 23 22 3 -8 6 -6 6 5 1 11 -6 17 -19 17 -17
0 -20 -7 -20 -44z"/>
<path d="M1214 185 l10 -44 13 42 c16 53 16 58 -2 27 -10 -18 -14 -20 -15 -8
0 9 -4 19 -8 22 -4 3 -3 -15 2 -39z"/>
<path d="M1287 224 c-12 -13 -8 -71 7 -83 20 -17 38 10 34 51 -3 31 -25 48
-41 32z m31 -41 c-2 -21 -7 -38 -13 -38 -5 0 -11 17 -13 38 -3 29 0 37 13 37
13 0 16 -8 13 -37z"/>
<path d="M1341 183 c1 -27 4 -39 6 -28 3 11 10 23 17 27 8 6 7 8 -1 8 -7 0
-13 6 -13 14 0 8 6 17 13 19 7 3 5 6 -5 6 -15 1 -18 -7 -17 -46z"/>
<path d="M1411 200 c0 -19 3 -42 9 -50 7 -11 11 -8 20 15 6 16 9 38 7 49 -3
16 -6 13 -13 -14 l-8 -35 -7 35 -6 35 -2 -35z"/>
<path d="M1471 214 c0 -11 3 -14 6 -6 3 7 2 16 -1 19 -3 4 -6 -2 -5 -13z"/>
<path d="M1496 199 c-9 -49 -8 -54 17 -54 16 0 23 5 21 15 -15 80 -27 92 -38
39z m20 -36 c-11 -11 -19 6 -11 24 8 17 8 17 12 0 3 -10 2 -21 -1 -24z"/>
<path d="M1560 183 l5 -48 3 40 c2 22 9 43 15 47 8 5 5 8 -8 8 -18 0 -20 -5
-15 -47z"/>
<path d="M1601 183 c1 -27 4 -39 6 -28 3 11 10 23 17 27 8 6 7 8 -1 8 -20 0
-15 28 5 33 13 4 11 5 -5 6 -21 1 -23 -3 -22 -46z"/>
<path d="M1651 178 c1 -29 4 -41 6 -25 5 33 20 36 26 5 2 -13 5 -2 6 25 1 41
-2 47 -19 47 -18 0 -20 -6 -19 -52z m29 27 c0 -8 -4 -15 -10 -15 -5 0 -10 7
-10 15 0 8 5 15 10 15 6 0 10 -7 10 -15z"/>
<path d="M1457 183 c-11 -10 -8 -43 3 -43 6 0 10 11 10 25 0 26 -2 29 -13 18z"/>
</g>
</svg>
